<?xml version="1.0" encoding="utf-8"?>
<!-- Generator: Adobe Illustrator 16.0.0, SVG Export Plug-In . SVG Version: 6.00 Build 0)  -->
<!DOCTYPE svg PUBLIC "-//W3C//DTD SVG 1.1//EN" "http://www.w3.org/Graphics/SVG/1.1/DTD/svg11.dtd">
<svg version="1.1" xmlns="http://www.w3.org/2000/svg" xmlns:xlink="http://www.w3.org/1999/xlink" x="0px" y="0px" width="40px"
	 height="40px" viewBox="0 0 40 40" enable-background="new 0 0 40 40" xml:space="preserve">
<g id="Layer_1" display="none">
	<g id="Layer_1_1_">
		<path display="inline" fill="#FFFFFF" stroke="#65CCB8" stroke-width="7.0444" stroke-miterlimit="10" d="M-206.247-31.956
			c-33.323,0-60.334,21.878-60.334,48.866c0,11.08,4.56,21.296,12.233,29.494c-0.885,7.565-3.522,24.561-9.714,29.061
			c-0.783,0.568-1.602,0.969-0.018,0.746c6.938-0.975,26.643-4.414,37.649-13.247c6.311,1.813,13.103,2.812,20.183,2.812
			c33.322,0,60.335-21.877,60.335-48.864C-145.912-10.078-172.925-31.956-206.247-31.956z"/>
		<g display="inline">
			<path fill="#65CCB8" d="M-731.536,122.666c0,0,3.202-2.114,3.978-4.701l2.429,1.049l1.551-1.029c0,0,1.802,3.25,5.011,4.73
				l-0.682,0.76v1.242c0,0,1.961-1.449,2.557-1.035c0,0,0.889,0.104,2.597,1.863c0,0,0.525-1.332,1.349-1.346l7.657,3.467
				c0,0,0.034,3.72,0.026,7.812c-0.009,4.932,0.337,10.402-0.031,10.566c0,0-0.154,2.061-0.154,2.475v38.91
				c0,0-1.158,4.139-4.677,3.727c0,0-4.033,0.31-4.344-3.52l0.132-34.875l-1.111,0.207v34.615c0,0-0.015,3.215-3.843,3.6
				c0,0-4.157-0.34-4.157-3.547v-39.17c0,0-1.109-1.396-1.109-4.191l0.234-17.074L-731.536,122.666z"/>
			<path fill="#65CCB8" d="M-711.168,123.27c0,0,3.621-0.932,5.64-4.244c0,0,6.157,1.76,4.398,5.589c0,0-1.552,2.587-4.398,1.552
				L-711.168,123.27z"/>
			<circle fill="#65CCB8" cx="-736.257" cy="113.851" r="8.693"/>
			<circle fill="#65CCB8" cx="-714.215" cy="113.851" r="8.693"/>
			<circle fill="#65CCB8" cx="-758.3" cy="113.851" r="8.693"/>
			<path fill="#65CCB8" d="M-761.354,123.27c0,0-3.621-0.932-5.64-4.244c0,0-6.157,1.76-4.398,5.589c0,0,1.552,2.587,4.398,1.552
				L-761.354,123.27z"/>
			<path fill="#65CCB8" d="M-753.578,122.666c0,0,3.201-2.114,3.978-4.701l2.428,1.049l1.552-1.029c0,0,1.323,3.25,4.53,4.73
				l-1.159,0.76v1.242c0,0,2.439-1.449,3.034-1.035c0,0,1.13,0.104,2.838,1.863c0,0,1.646-2.277,3.466-1.967l5.679,3.156
				c0,0,0.268,19.011-0.405,19.311c0,0-0.611,2.061-0.611,2.475v38.91c0,0-0.68,4.139-4.198,3.727c0,0-3.793,0.31-4.104-3.52
				l0.271-34.875l-0.97,0.207v34.615c0,0-0.015,3.215-3.844,3.6c0,0-4.156-0.34-4.156-3.547v-39.17c0,0-1.131-1.396-1.131-4.191
				l0.224-17.074L-753.578,122.666z"/>
			<path fill="#65CCB8" d="M-760.037,123.754l1.723,1.568c0,0,2.419-2.27,3.557-1.958c0,0,4.508,3.6,6.508,3.37v19.25
				c0,0-0.82,2.432-1.184,2.535l0.068,39.742c0,0-0.861,3.159-4.084,2.924c0,0-3.801-0.443-3.801-3.651v-34.72l-0.9-0.155
				l-0.152,34.978c0,0-0.336,3.603-4.061,3.561c0,0-4.256-0.146-4.152-4.389l0.028-38.808c0,0-0.763,1.035-0.763-3.933v-8.021
				c0,0-10.077-1.396-17.063-16.505c0,0-0.498-2.914,1.985-3.837c0,0,2.261-1.233,4.227,0.629c0,0,6.118,11.315,9.099,11.324
				C-769.003,127.659-765.447,127.552-760.037,123.754z"/>
			<path fill="#65CCB8" d="M-693.363,115.706c0,0,2.381-1.751,3.934-0.82c1.552,0.931,0.508,0.273,0.508,0.273
				s2.597,2.003,1.147,4.692c0,0-6.57,14.488-17.308,15.627l-2.831-9.069c0,0,2.649,1.913,4.513,1.248
				C-703.4,127.659-699.52,126.564-693.363,115.706z"/>
		</g>
		<g id="K6ufLO_1_" display="inline">
			
				<image overflow="visible" enable-background="new    " width="1301" height="1391" id="K6ufLO_2_" xlink:href="47DFBD379F83CC2B.png"  transform="matrix(0.9992 0 0 0.9993 -3112.5005 -527.709)">
			</image>
		</g>
		<g id="siqs9n_1_" display="inline">
			
				<image overflow="visible" enable-background="new    " width="450" height="470" id="siqs9n_2_" xlink:href="47DFBD379F83CC2D.png"  transform="matrix(1 0 0 1 -1731.25 -18.959)">
			</image>
		</g>
		<polygon display="inline" fill="#F4CF31" stroke="#FFFFFF" stroke-width="0.5549" stroke-miterlimit="10" points="
			-905.506,174.997 -901.408,128.061 -899.471,174.997 -872.183,150.333 -896.061,177.098 -864.573,179.458 -897.372,182.082 
			-882.152,199.137 -899.733,184.968 -901.431,224.018 -905.506,185.493 -931.744,211.208 -906.031,181.557 -940.93,179.195 
			-907.08,177.098 -920.2,161.09 		"/>
		<g display="inline">
			<path fill="#65CCB8" d="M-731.536,122.666c0,0,3.202-2.114,3.978-4.701l2.429,1.049l1.551-1.029c0,0,1.802,3.25,5.011,4.73
				l-0.682,0.76v1.242c0,0,1.961-1.449,2.557-1.035c0,0,0.889,0.104,2.597,1.863c0,0,0.525-1.332,1.349-1.346l7.657,3.467
				c0,0,0.034,3.72,0.026,7.812c-0.009,4.932,0.337,10.402-0.031,10.566c0,0-0.154,2.061-0.154,2.475v38.91
				c0,0-1.158,4.139-4.677,3.727c0,0-4.033,0.31-4.344-3.52l0.132-34.875l-1.111,0.207v34.615c0,0-0.015,3.215-3.843,3.6
				c0,0-4.157-0.34-4.157-3.547v-39.17c0,0-1.109-1.396-1.109-4.191l0.234-17.074L-731.536,122.666z"/>
			<path fill="#65CCB8" d="M-711.168,123.27c0,0,3.621-0.932,5.64-4.244c0,0,6.157,1.76,4.398,5.589c0,0-1.552,2.587-4.398,1.552
				L-711.168,123.27z"/>
			<circle fill="#65CCB8" cx="-736.257" cy="113.851" r="8.693"/>
			<circle fill="#65CCB8" cx="-714.215" cy="113.851" r="8.693"/>
			<circle fill="#65CCB8" cx="-758.3" cy="113.851" r="8.693"/>
			<path fill="#65CCB8" d="M-761.354,123.27c0,0-3.621-0.932-5.64-4.244c0,0-6.157,1.76-4.398,5.589c0,0,1.552,2.587,4.398,1.552
				L-761.354,123.27z"/>
			<path fill="#65CCB8" d="M-753.578,122.666c0,0,3.201-2.114,3.978-4.701l2.428,1.049l1.552-1.029c0,0,1.323,3.25,4.53,4.73
				l-1.159,0.76v1.242c0,0,2.439-1.449,3.034-1.035c0,0,1.13,0.104,2.838,1.863c0,0,1.646-2.277,3.466-1.967l5.679,3.156
				c0,0,0.268,19.011-0.405,19.311c0,0-0.611,2.061-0.611,2.475v38.91c0,0-0.68,4.139-4.198,3.727c0,0-3.793,0.31-4.104-3.52
				l0.271-34.875l-0.97,0.207v34.615c0,0-0.015,3.215-3.844,3.6c0,0-4.156-0.34-4.156-3.547v-39.17c0,0-1.131-1.396-1.131-4.191
				l0.224-17.074L-753.578,122.666z"/>
			<path fill="#65CCB8" d="M-760.037,123.754l1.723,1.568c0,0,2.419-2.27,3.557-1.958c0,0,4.508,3.6,6.508,3.37v19.25
				c0,0-0.82,2.432-1.184,2.535l0.068,39.742c0,0-0.861,3.159-4.084,2.924c0,0-3.801-0.443-3.801-3.651v-34.72l-0.9-0.155
				l-0.152,34.978c0,0-0.336,3.603-4.061,3.561c0,0-4.256-0.146-4.152-4.389l0.028-38.808c0,0-0.763,1.035-0.763-3.933v-8.021
				c0,0-10.077-1.396-17.063-16.505c0,0-0.498-2.914,1.985-3.837c0,0,2.261-1.233,4.227,0.629c0,0,6.118,11.315,9.099,11.324
				C-769.003,127.659-765.447,127.552-760.037,123.754z"/>
			<path fill="#65CCB8" d="M-693.363,115.706c0,0,2.381-1.751,3.934-0.82c1.552,0.931,0.508,0.273,0.508,0.273
				s2.597,2.003,1.147,4.692c0,0-6.57,14.488-17.308,15.627l-2.831-9.069c0,0,2.649,1.913,4.513,1.248
				C-703.4,127.659-699.52,126.564-693.363,115.706z"/>
		</g>
		<g display="inline">
			<ellipse fill="#65CCB8" cx="-172.629" cy="58.628" rx="42.203" ry="34.18"/>
			<circle fill="#FFFFFF" cx="-171.674" cy="59.344" r="6.676"/>
			<circle fill="#FFFFFF" cx="-155.223" cy="59.344" r="6.676"/>
			<path fill="#65CCB8" d="M-132.48,100.335c-6.573-0.754-26.827-3.808-29.418-12.976l21.827-13.377c0,0,3.19,21.184,8.431,25.814
				C-131.246,100.145-131.189,100.482-132.48,100.335z"/>
			<circle fill="#FFFFFF" cx="-189.558" cy="59.344" r="6.676"/>
		</g>
		<g display="inline">
			<path fill="#65CCB8" d="M-514.783,178.042h-22.202c0,0-4.265,0.382-4.265-6.646v-48.397c0,0-0.688-3.958,4.743-3.958h44.244
				c0,0,4.013,0.443,4.013,6.354v18.688l-4-0.16V124.04h-45v49h22.626L-514.783,178.042z"/>
			<rect x="-534.25" y="128.042" fill="#65CCB8" width="5" height="5"/>
			<rect x="-524.25" y="128.042" fill="#65CCB8" width="29" height="5"/>
			<rect x="-534.25" y="138.042" fill="#65CCB8" width="5" height="5"/>
			<rect x="-524.25" y="138.042" fill="#65CCB8" width="29" height="5"/>
			<rect x="-534.25" y="149.042" fill="#65CCB8" width="5" height="5"/>
			<rect x="-524.25" y="149.042" fill="#65CCB8" width="29" height="5"/>
			<rect x="-534.25" y="160.042" fill="#65CCB8" width="5" height="5"/>
			<rect x="-524.25" y="160.042" fill="#65CCB8" width="29" height="5"/>
			<circle fill="#65CCB8" cx="-492.315" cy="167.989" r="24.278"/>
			<circle fill="#FFFFFF" cx="-492.315" cy="167.989" r="19.851"/>
			<path fill="#65CCB8" d="M-489.25,168.042v-11.713c0,0,0.046-1,0.125-1.226c0.238-0.67,0.244-1.902,1.722-1.863
				c1.356,0.037,1.529,0.388,1.854,0.957c0.146,0.258,0.3,1.812,0.3,1.812v14.908c0,0,0.277,1.669-1.666,2.001
				c-0.225,0.039-1.016,0.124-1.246,0.124c-2.848,0-9.471,0-11.395,0c-0.34,0-0.723-0.097-0.986-0.206
				c-0.597-0.248-1.569-0.922-1.569-2.472c0-2.236,2.131-2.358,2.131-2.358L-489.25,168.042z"/>
		</g>
		
			<line display="inline" fill="none" stroke="#FFFFFF" stroke-miterlimit="10" x1="-264.75" y1="-31.958" x2="-264.75" y2="100.042"/>
	</g>
	<g id="Layer_5">
		<polygon display="inline" fill="#F4CF31" points="-135.771,32.78 -252.25,100.03 -252.25,-34.47 -135.771,32.78 -252.25,100.03 
			-252.25,-34.47 		"/>
	</g>
	<g id="Layer_6" display="inline">
		<path fill="#FFFFFF" d="M-193.085-98.982c0,0-4.516-2.71-3.473-4.308c0,0,0.417-1.527,2.569-2.709c0,0,5.419-4.098-0.485-9.933
			l2.569,0.069l2.024-2.014l-10.36-0.305c0,0-1.825,0.058-2.483,0.304c-2.219,0.827-6.956,3.283-5.991,8.961
			c0,0,1.25,6.251,8.475,5.418c0,0-2.064,2.779,0.635,4.446c0,0-11.889-0.416-11.472,8.475c0,0,0.692,5.141,10.35,4.863
			c0,0,9.588,1.389,10.838-7.502C-189.89-93.216-189.542-96.968-193.085-98.982z M-204.616-108.847
			c-1.875-3.863,0.524-6.378,1.461-7.167c0.209-0.176,0.622-0.377,0.757-0.422c3.62-1.183,5.492,3.143,5.492,3.143
			c2.513,4.868,0.568,7.094-0.542,7.896c-0.363,0.261-0.962,0.436-1.117,0.458C-202.996-104.31-204.616-108.847-204.616-108.847z
			 M-199.059-87.312c-6.763,0.327-8.045-3.242-8.284-4.792c-0.065-0.423,0.042-1.21,0.106-1.449c1.469-5.391,8.732-4.18,8.732-4.18
			l0.529,0.099c0,0,0.913,0.289,1.07,0.38c2.213,1.28,3.239,2.64,3.625,3.266c0.139,0.224,0.239,0.616,0.256,0.742
			C-192.27-87.521-199.059-87.312-199.059-87.312z"/>
		<path fill="#FFFFFF" d="M-131.25-110.28v-4.106c0,0-0.615-2.871-3.324-2.918c0,0-3.676,0.134-3.676,2.964v15.7
			c0,0,0.156,7.12,7.459,8.854c0,0,6.806,0.913,11.2,0c0,0,2.071-0.339,1.946-2.953c0,0,0.02-3.254-2.657-3.62l-8.403-0.182
			c0,0-2.679-0.43-2.679-3.455l0.09-3.163l10.983-0.137c0,0,2.785-0.612,2.654-3.547c0,0,0.11-3.391-2.994-3.482L-131.25-110.28z"/>
		<path fill="#FFFFFF" d="M16.229,34.475v-13.14h-3.504v-5.256h3.504v-4.686c0,0,0.848-5.826,5.649-5.826h5.738v4.38h-3.511
			c0,0-1.885-0.065-1.885,2.101l-0.087,4.031h5.229l-0.857,5.256h-4.285l-0.086,13.14H16.229z"/>
	</g>
	<g id="Layer_4">
		<g display="inline">
			<path fill="#65CCB8" d="M-219.666,77.042h-42.412c0,0-8.172,0.435-8.172-12.99v-92.45c0,0-1.288-7.56,9.086-7.56h84.518
				c0,0,7.396,0.848,7.396,12.136v35.7l-7-0.305v-37.53h-86v93h42.888L-219.666,77.042z"/>
			<rect x="-257.25" y="-18.958" fill="#65CCB8" width="10" height="10"/>
			<rect x="-238.25" y="-18.958" fill="#65CCB8" width="56" height="10"/>
			<rect x="-257.25" y="0.042" fill="#65CCB8" width="10" height="10"/>
			<rect x="-238.25" y="0.042" fill="#65CCB8" width="56" height="10"/>
			<rect x="-257.25" y="21.042" fill="#65CCB8" width="10" height="10"/>
			<rect x="-238.25" y="21.042" fill="#65CCB8" width="56" height="10"/>
			<rect x="-257.25" y="42.042" fill="#65CCB8" width="10" height="10"/>
			<rect x="-238.25" y="42.042" fill="#65CCB8" width="56" height="10"/>
			<circle fill="#65CCB8" cx="-176.748" cy="57.542" r="46.377"/>
			<circle fill="#FFFFFF" cx="-176.748" cy="57.542" r="37.919"/>
			<path fill="#65CCB8" d="M-171.25,57.645V35.27c0,0,0.266-1.912,0.418-2.34c0.455-1.283,0.556-3.636,3.378-3.561
				c2.591,0.07,2.967,0.74,3.586,1.829c0.28,0.491,0.618,3.46,0.618,3.46v28.478c0,0,0.529,3.111-3.184,3.746
				c-0.428,0.074-1.939,0.16-2.38,0.16c-5.44,0-18.092,0-21.767,0c-0.649,0-1.381-0.108-1.884-0.317
				c-1.14-0.474-2.998-1.722-2.998-4.684c0-4.271,3.892-4.486,3.892-4.486L-171.25,57.645z"/>
		</g>
	</g>
	<g id="Layer_3">
		<g display="inline">
			<path fill="#65CCB8" d="M-193.856-2.154c0,0,4.698-3.102,5.836-6.898l3.563,1.538l2.275-1.508c0,0,2.434,4.768,7.143,6.941
				l-1.211,1.116v1.822c0,0,3.088-2.125,3.962-1.518c0,0,1.409,0.152,3.915,2.733c0,0,0.822-1.954,2.03-1.975l11.262,5.087
				c0,0,0.063,5.458,0.052,11.463c-0.012,7.235,0.521,15.263-0.02,15.503c0,0-0.201,3.021-0.201,3.629v57.093
				c0,0-1.719,6.073-6.881,5.466c0,0-5.927,0.455-6.383-5.163l0.044-51.17l-1.78,0.304V93.1c0,0,0.348,4.717-5.27,5.281
				c0,0-5.73-0.499-5.73-5.205V35.704c0,0-1.852-2.05-1.852-6.149L-182.87,4.5L-193.856-2.154z"/>
			<path fill="#65CCB8" d="M-163.972-1.27c0,0,5.313-1.366,8.275-6.226c0,0,9.034,2.581,6.453,8.199c0,0-2.276,3.796-6.453,2.278
				L-163.972-1.27z"/>
			<circle fill="#65CCB8" cx="-200.784" cy="-15.087" r="12.754"/>
			<circle fill="#65CCB8" cx="-168.442" cy="-15.087" r="12.755"/>
			<circle fill="#65CCB8" cx="-233.126" cy="-15.087" r="12.754"/>
			<path fill="#65CCB8" d="M-237.606-1.27c0,0-5.312-1.366-8.274-6.226c0,0-9.034,2.581-6.454,8.199c0,0,2.277,3.796,6.454,2.278
				L-237.606-1.27z"/>
			<path fill="#65CCB8" d="M-226.198-2.154c0,0,4.697-3.102,5.837-6.898l3.562,1.538l2.277-1.508c0,0,2.104,4.768,6.81,6.941
				l-1.537,1.116v1.822c0,0,3.416-2.125,4.288-1.518c0,0,1.577,0.152,4.083,2.733c0,0,2.375-3.341,5.044-2.886l8.312,4.631
				c0,0,0.274,27.894-0.712,28.333c0,0-1.016,3.021-1.016,3.629v57.093c0,0-0.89,6.073-6.053,5.466c0,0-5.511,0.455-5.967-5.163
				l0.42-51.17l-1.4,0.304V93.1c0,0-0.152,4.717-5.771,5.281c0,0-6.229-0.499-6.229-5.205V35.704c0,0-1.523-2.05-1.523-6.149
				l0.396-25.054L-226.198-2.154z"/>
			<path fill="#65CCB8" d="M-235.675-0.557l2.527,2.301c0,0,3.614-3.33,5.284-2.874c0,0,6.613,5.281,9.613,4.945v28.246
				c0,0-1.27,3.567-1.803,3.72l0.068,58.312c0,0-1.112,4.636-5.841,4.289c0,0-5.425-0.649-5.425-5.356V42.081l-1.488-0.228
				l-0.308,51.322c0,0-0.535,5.284-6,5.225c0,0-6.265-0.213-6.114-6.438l0.036-56.94c0,0-1.126,1.519-1.126-5.771V17.482
				c0,0-14.79-2.049-25.041-24.218c0,0-0.732-4.275,2.911-5.63c0,0,3.316-1.81,6.201,0.923c0,0,8.976,16.603,13.349,16.615
				C-248.83,5.172-243.613,5.016-235.675-0.557z"/>
			<path fill="#65CCB8" d="M-137.848-12.366c0,0,3.494-2.57,5.772-1.203c2.276,1.366,0.744,0.401,0.744,0.401
				s3.811,2.939,1.685,6.887c0,0-9.641,21.258-25.396,22.928l-4.153-13.306c0,0,3.887,2.806,6.621,1.831
				C-152.574,5.172-146.88,3.566-137.848-12.366z"/>
		</g>
	</g>
	<g id="Layer_2">
		<g display="inline">
			<g>
				<path fill="#65CCB8" d="M-229.25-17.514c0,2.516-2.041,4.555-4.558,4.555h-0.885c-2.517,0-4.558-2.04-4.558-4.555v-16.89
					c0-2.516,2.041-4.555,4.558-4.555h0.885c2.517,0,4.558,2.04,4.558,4.555V-17.514z"/>
				<path fill="#65CCB8" d="M-164.25-17.959c0,2.516-1.924,5.001-4.441,5.001h-0.718c-2.517,0-4.841-2.485-4.841-5.001v-16.444
					c0-2.516,2.324-4.555,4.841-4.555h0.718c2.518,0,4.441,2.04,4.441,4.555V-17.959z"/>
				<g>
					<polygon fill="#65CCB8" points="-268.021,87.604 -268.021,87.602 -268.021,87.602 					"/>
					<path fill="#65CCB8" d="M-268.021,87.602C-268.021,87.284-268.042,87.314-268.021,87.602L-268.021,87.602z"/>
					<path fill="#65CCB8" d="M-138.62-26.958h-21.63v11.109c0,3.806-3.36,6.889-9.002,6.889c-5.64,0-8.998-3.083-8.998-6.889
						v-11.109h-47v11.109c0,3.806-3.358,6.889-9,6.889c-5.643,0-9-3.083-9-6.889v-11.109h-13.048
						c-3.24,0-15.952,5.902-15.952,12.152V87.602c0,1.676,5.874,16.44,21.262,16.44h108.281c3.234,0,12.457-10.188,12.457-16.438
						V-14.807C-130.25-21.056-135.383-26.958-138.62-26.958z"/>
				</g>
				<path fill="#FFFFFF" d="M-260.25,10.042v73.351c0,0,1.834,4.336,7.013,4.211c5.174-0.125,104.664,0.002,104.664,0.002
					s6.323,2.051,6.323-4.761V10.042H-260.25z"/>
			</g>
			<path fill="#65CCB8" d="M-230.25,32.449c0,4.193-3.399,7.593-7.593,7.593h-0.814c-4.193,0-7.593-3.399-7.593-7.593v-0.814
				c0-4.193,3.399-7.593,7.593-7.593h0.814c4.193,0,7.593,3.399,7.593,7.593V32.449z"/>
			<path fill="#65CCB8" d="M-230.25,65.448c0,4.194-3.399,7.593-7.593,7.593h-0.814c-4.193,0-7.593-3.398-7.593-7.593v-0.813
				c0-4.193,3.399-7.593,7.593-7.593h0.814c4.193,0,7.593,3.399,7.593,7.593V65.448z"/>
			<path fill="#65CCB8" d="M-195.25,32.077c0,4.192-3.736,7.964-7.932,7.964h-0.537c-4.194,0-7.531-3.771-7.531-7.964v-0.54
				c0-4.193,3.337-7.496,7.531-7.496h0.537c4.195,0,7.932,3.303,7.932,7.496V32.077z"/>
			<path fill="#65CCB8" d="M-195.25,65.494c0,4.193-3.736,7.547-7.932,7.547h-0.537c-4.194,0-7.531-3.354-7.531-7.547v-0.54
				c0-4.193,3.337-7.913,7.531-7.913h0.537c4.195,0,7.932,3.72,7.932,7.913V65.494z"/>
			<path fill="#65CCB8" d="M-160.25,32.077c0,4.192-3.354,7.964-7.549,7.964h-0.537c-4.194,0-7.914-3.771-7.914-7.964v-0.54
				c0-4.193,3.72-7.496,7.914-7.496h0.537c4.195,0,7.549,3.303,7.549,7.496V32.077z"/>
			<path fill="#65CCB8" d="M-160.25,65.494c0,4.193-3.354,7.547-7.549,7.547h-0.537c-4.194,0-7.914-3.354-7.914-7.547v-0.54
				c0-4.193,3.72-7.913,7.914-7.913h0.537c4.195,0,7.549,3.72,7.549,7.913V65.494z"/>
		</g>
	</g>
</g>
<g id="Layer_2_1_">
	<g display="none">
		<path display="inline" fill="#FFFFFF" d="M31.553,10.987H9.789C9.364,10.987,9,11.321,9,11.775v1.546
			c0,0.061,0.091,0.152,0.152,0.182l11.458,6.548c0.03,0.03,0.061,0.03,0.091,0.03s0.061,0,0.091-0.03l11.095-6.548
			c0.061-0.03,0.242-0.121,0.304-0.182c0.061-0.061,0.151-0.091,0.151-0.182v-1.395C32.342,11.321,32.008,10.987,31.553,10.987z"/>
		<path display="inline" fill="#FFFFFF" d="M32.251,15.656c-0.061-0.03-0.122-0.03-0.183,0l-6.305,3.729
			c-0.061,0.03-0.091,0.091-0.091,0.151s0,0.121,0.061,0.151l6.274,6.79c0.031,0.031,0.092,0.062,0.152,0.062
			c0.03,0,0.061,0,0.061,0c0.061-0.031,0.121-0.092,0.121-0.184V15.837C32.342,15.777,32.312,15.716,32.251,15.656z"/>
		<path display="inline" fill="#FFFFFF" d="M23.945,20.598c-0.061-0.062-0.152-0.092-0.243-0.031l-2.517,1.486
			c-0.303,0.182-0.666,0.182-0.969,0l-2.213-1.273c-0.061-0.031-0.152-0.031-0.243,0.029l-8.397,7.82
			c-0.03,0.031-0.061,0.092-0.061,0.152s0.03,0.121,0.091,0.152c0.121,0.09,0.242,0.121,0.394,0.121h21.583
			c0.092,0,0.152-0.061,0.182-0.121c0.031-0.061,0.031-0.152-0.029-0.213L23.945,20.598z"/>
		<path display="inline" fill="#FFFFFF" d="M15.912,19.9c0.061-0.03,0.061-0.092,0.061-0.152s-0.03-0.121-0.091-0.151l-6.578-3.789
			c-0.061-0.03-0.121-0.03-0.182,0S9.03,15.898,9.03,15.989v9.882c0,0.092,0.031,0.152,0.122,0.182c0.03,0,0.061,0.031,0.091,0.031
			c0.061,0,0.091-0.031,0.121-0.061L15.912,19.9z"/>
	</g>
	<path display="none" fill="#FFFFFF" d="M30.276,14.937c0,0-0.062-2.409-3.812-2.534c0,0-9.561-0.375-14.937,0
		c0,0-2.18,0.131-2.688,2.534c0,0-0.812,6.216,0,9.716c0,0,0.375,2.5,2.438,2.75c0,0,10.562,0.812,16.062,0
		c0,0,2.614-0.062,2.938-2.812C30.276,24.59,30.901,18.533,30.276,14.937z M20.061,21.559l-2.707,1.57L17.348,20l-0.006-3.129
		l2.712,1.559l2.713,1.558L20.061,21.559z"/>
	<path fill="#FFFFFF" d="M27.192,12.281c-2.037-2.038-4.745-3.162-7.631-3.163c-5.947,0-10.787,4.837-10.788,10.783
		c-0.001,1.901,0.496,3.757,1.44,5.392l-1.531,5.588l5.719-1.499c1.576,0.858,3.35,1.312,5.155,1.313h0.005
		c5.945,0,10.784-4.838,10.787-10.785C30.351,17.029,29.229,14.319,27.192,12.281 M19.562,28.874h-0.004
		c-1.609-0.001-3.187-0.434-4.564-1.25l-0.327-0.194l-3.394,0.89l0.906-3.308l-0.214-0.34c-0.897-1.426-1.371-3.075-1.371-4.77
		c0.002-4.941,4.024-8.962,8.97-8.962c2.394,0,4.646,0.934,6.34,2.628c1.693,1.694,2.623,3.947,2.623,6.342
		C28.524,24.854,24.503,28.874,19.562,28.874 M24.479,22.16c-0.271-0.134-1.596-0.787-1.843-0.877
		c-0.246-0.091-0.427-0.134-0.606,0.136c-0.18,0.269-0.695,0.876-0.853,1.056c-0.156,0.181-0.315,0.203-0.585,0.068
		c-0.269-0.136-1.138-0.42-2.167-1.339c-0.801-0.713-1.342-1.597-1.499-1.865c-0.158-0.271-0.017-0.416,0.117-0.55
		c0.122-0.121,0.27-0.315,0.405-0.473c0.134-0.157,0.179-0.269,0.269-0.449s0.045-0.336-0.022-0.473
		c-0.067-0.134-0.606-1.46-0.831-2c-0.219-0.526-0.441-0.456-0.606-0.463c-0.158-0.008-0.337-0.01-0.516-0.01
		c-0.181,0-0.472,0.067-0.72,0.336c-0.247,0.271-0.943,0.922-0.943,2.249c0,1.326,0.966,2.608,1.101,2.788
		c0.135,0.179,1.901,2.9,4.605,4.068c0.643,0.277,1.145,0.443,1.538,0.567c0.645,0.206,1.232,0.177,1.697,0.107
		c0.519-0.078,1.594-0.652,1.818-1.282c0.225-0.629,0.225-1.169,0.158-1.281C24.929,22.362,24.75,22.295,24.479,22.16"/>
</g>
</svg>
