<?xml version="1.0" encoding="utf-8"?>
<!-- Generator: Adobe Illustrator 16.0.0, SVG Export Plug-In . SVG Version: 6.00 Build 0)  -->
<!DOCTYPE svg PUBLIC "-//W3C//DTD SVG 1.1//EN" "http://www.w3.org/Graphics/SVG/1.1/DTD/svg11.dtd">
<svg version="1.1" id="Layer_1" xmlns="http://www.w3.org/2000/svg" xmlns:xlink="http://www.w3.org/1999/xlink" x="0px" y="0px"
	 width="66.25px" height="66.25px" viewBox="0 0 66.25 66.25" enable-background="new 0 0 66.25 66.25" xml:space="preserve">
<g id="Layer_1_1_" display="none">
	
		<rect x="-27.25" y="-27.25" display="inline" fill="#33C197" stroke="#33C197" stroke-width="3" stroke-miterlimit="10" width="122" height="121.5"/>
	<g display="inline">
		<g>
			<defs>
				<rect id="SVGID_1_" x="-60.25" y="-61.25" width="180" height="180"/>
			</defs>
			<clipPath id="SVGID_2_">
				<use xlink:href="#SVGID_1_"  overflow="visible"/>
			</clipPath>
			<path clip-path="url(#SVGID_2_)" fill="#FFFFFF" d="M24.251,79.465l-36.216-36.217c-5.246-5.245-5.246-13.751,0-18.996
				l36.216-36.217c5.247-5.246,13.751-5.246,18.997,0l36.217,36.217c5.246,5.245,5.246,13.751,0,18.996L43.248,79.465
				C38.003,84.711,29.498,84.711,24.251,79.465"/>
		</g>
		<g>
			<defs>
				<rect id="SVGID_3_" x="-60.25" y="-61.25" width="180" height="180"/>
			</defs>
			<clipPath id="SVGID_4_">
				<use xlink:href="#SVGID_3_"  overflow="visible"/>
			</clipPath>
			<path clip-path="url(#SVGID_4_)" fill="none" stroke="#FFFFFF" stroke-miterlimit="10" d="M24.251,79.465l-36.216-36.217
				c-5.246-5.245-5.246-13.751,0-18.996l36.216-36.217c5.247-5.246,13.751-5.246,18.997,0l36.217,36.217
				c5.246,5.245,5.246,13.751,0,18.996L43.248,79.465C38.003,84.711,29.498,84.711,24.251,79.465z"/>
		</g>
		<g>
			<defs>
				<rect id="SVGID_5_" x="-60.25" y="-61.25" width="180" height="180"/>
			</defs>
			<clipPath id="SVGID_6_">
				<use xlink:href="#SVGID_5_"  overflow="visible"/>
			</clipPath>
			<path clip-path="url(#SVGID_6_)" fill="#D3D3D3" d="M43.248,79.465l36.217-36.217c5.246-5.245,5.246-13.751,0-18.996
				L43.248-11.965c-5.245-5.246-13.75-5.246-18.997,0c0,0,21.542,8.83,22.999,44.215C47.758,44.593,51.523,59.755,43.248,79.465"/>
		</g>
		<g>
			<defs>
				<rect id="SVGID_7_" x="-60.25" y="-61.25" width="180" height="180"/>
			</defs>
			<clipPath id="SVGID_8_">
				<use xlink:href="#SVGID_7_"  overflow="visible"/>
			</clipPath>
			<path clip-path="url(#SVGID_8_)" fill="none" stroke="#D3D3D3" stroke-miterlimit="10" d="M43.248,79.465l36.217-36.217
				c5.246-5.245,5.246-13.751,0-18.996L43.248-11.965c-5.245-5.246-13.75-5.246-18.997,0c0,0,21.542,8.83,22.999,44.215
				C47.758,44.593,51.523,59.755,43.248,79.465z"/>
		</g>
		<g>
			<defs>
				<rect id="SVGID_9_" x="-60.25" y="-61.25" width="180" height="180"/>
			</defs>
			<clipPath id="SVGID_10_">
				<use xlink:href="#SVGID_9_"  overflow="visible"/>
			</clipPath>
			<path clip-path="url(#SVGID_10_)" fill="#FFFFFF" d="M20.668,13.147h14.828c7.786,0,11.336,4.766,11.336,12.234
				c0,3.071-0.689,5.879-3.496,8.369c3.018,2.859,3.496,5.666,3.496,9.586c0,6.938-4.609,11.016-11.336,11.016H20.668V13.147z
				 M25.964,31.103h9.532c3.814,0,6.039-1.695,6.039-5.721c0-4.448-1.217-6.937-6.039-6.937h-9.532V31.103z M25.964,49.057h9.532
				c3.814,0,6.039-1.693,6.039-5.72c0-4.448-1.217-6.938-6.039-6.938h-9.532V49.057z"/>
		</g>
		<g>
			<defs>
				<rect id="SVGID_11_" x="-60.25" y="-61.25" width="180" height="180"/>
			</defs>
			<clipPath id="SVGID_12_">
				<use xlink:href="#SVGID_11_"  overflow="visible"/>
			</clipPath>
			<path clip-path="url(#SVGID_12_)" fill="#33C197" stroke="#33C197" stroke-width="3" stroke-miterlimit="10" d="M22.668,13.147
				h14.828c7.786,0,11.336,4.766,11.336,12.234c0,3.071-0.689,5.879-3.496,8.369c3.018,2.859,3.496,5.666,3.496,9.586
				c0,6.938-4.609,11.016-11.336,11.016H22.668V13.147z M27.964,31.103h9.532c3.814,0,6.039-1.695,6.039-5.721
				c0-4.448-1.217-6.937-6.039-6.937h-9.532V31.103z M27.964,49.057h9.532c3.814,0,6.039-1.693,6.039-5.72
				c0-4.448-1.217-6.938-6.039-6.938h-9.532V49.057z"/>
		</g>
	</g>
	<g id="Layer_7" display="inline">
		<text transform="matrix(1 0 0 1 416.6973 -98.6445)" font-family="'MyriadPro-Regular'" font-size="12" letter-spacing="33">  </text>
		<polygon fill="#FFFFFF" stroke="#FFFFFF" stroke-width="0.4932" stroke-miterlimit="10" points="29.217,-353.082 33.365,-393.118 
			34.582,-353.082 58.838,-375.003 37.611,-351.215 65.6,-349.117 36.447,-346.783 49.975,-331.625 34.35,-344.219 32.803,-307.789 
			29.217,-343.752 5.896,-320.896 28.75,-347.25 -2.268,-349.35 27.816,-351.215 16.155,-365.442 		"/>
	</g>
</g>
<g id="Layer_2">
	<g>
		<g>
			<defs>
				<rect id="SVGID_13_" x="-16" y="-16.75" width="95" height="95"/>
			</defs>
			<clipPath id="SVGID_14_">
				<use xlink:href="#SVGID_13_"  overflow="visible"/>
			</clipPath>
			<path clip-path="url(#SVGID_14_)" fill="#EBC500" d="M28.598,57.516L9.484,38.402c-2.769-2.77-2.769-7.258,0-10.026L28.598,9.262
				c2.77-2.769,7.259-2.769,10.026,0l19.114,19.114c2.769,2.769,2.769,7.258,0,10.026L38.624,57.516
				C35.855,60.284,31.367,60.284,28.598,57.516"/>
		</g>
		<g>
			<defs>
				<rect id="SVGID_15_" x="-16" y="-16.75" width="95" height="95"/>
			</defs>
			<clipPath id="SVGID_16_">
				<use xlink:href="#SVGID_15_"  overflow="visible"/>
			</clipPath>
			<path clip-path="url(#SVGID_16_)" fill="none" stroke="#EBC500" stroke-width="0.5278" stroke-miterlimit="10" d="M28.598,57.516
				L9.484,38.402c-2.769-2.77-2.769-7.258,0-10.026L28.598,9.262c2.77-2.769,7.259-2.769,10.026,0l19.114,19.114
				c2.769,2.769,2.769,7.258,0,10.026L38.624,57.516C35.855,60.284,31.367,60.284,28.598,57.516z"/>
		</g>
		<g>
			<defs>
				<rect id="SVGID_17_" x="-16" y="-16.75" width="95" height="95"/>
			</defs>
			<clipPath id="SVGID_18_">
				<use xlink:href="#SVGID_17_"  overflow="visible"/>
			</clipPath>
			<path clip-path="url(#SVGID_18_)" fill="#DC9C00" d="M38.624,57.516l19.114-19.113c2.769-2.769,2.769-7.257,0-10.025
				L38.624,9.262c-2.769-2.769-7.257-2.769-10.026,0c0,0,11.37,4.66,12.138,23.336C41.004,39.111,42.992,47.114,38.624,57.516"/>
		</g>
		<g>
			<defs>
				<rect id="SVGID_19_" x="-16" y="-16.75" width="95" height="95"/>
			</defs>
			<clipPath id="SVGID_20_">
				<use xlink:href="#SVGID_19_"  overflow="visible"/>
			</clipPath>
			<path clip-path="url(#SVGID_20_)" fill="none" stroke="#DC9C00" stroke-width="0.5278" stroke-miterlimit="10" d="M38.624,57.516
				l19.114-19.113c2.769-2.769,2.769-7.257,0-10.025L38.624,9.262c-2.769-2.769-7.257-2.769-10.026,0c0,0,11.37,4.66,12.138,23.336
				C41.004,39.111,42.992,47.114,38.624,57.516z"/>
		</g>
		<g>
			<defs>
				<rect id="SVGID_21_" x="-16" y="-16.75" width="95" height="95"/>
			</defs>
			<clipPath id="SVGID_22_">
				<use xlink:href="#SVGID_21_"  overflow="visible"/>
			</clipPath>
			<path clip-path="url(#SVGID_22_)" fill="#FFFFFF" d="M27.762,22.516h7.827c4.108,0,5.981,2.516,5.981,6.457
				c0,1.62-0.363,3.103-1.846,4.416c1.594,1.509,1.846,2.991,1.846,5.06c0,3.66-2.432,5.814-5.981,5.814h-7.827V22.516z
				 M30.557,31.991h5.032c2.013,0,3.187-0.894,3.187-3.019c0-2.348-0.643-3.661-3.187-3.661h-5.032V31.991z M30.557,41.467h5.032
				c2.013,0,3.187-0.894,3.187-3.019c0-2.349-0.643-3.662-3.187-3.662h-5.032V41.467z"/>
		</g>
		<g>
			<defs>
				<rect id="SVGID_23_" x="-16" y="-16.75" width="95" height="95"/>
			</defs>
			<clipPath id="SVGID_24_">
				<use xlink:href="#SVGID_23_"  overflow="visible"/>
			</clipPath>
			<path clip-path="url(#SVGID_24_)" fill="none" stroke="#FFFFFF" stroke-width="1.5833" stroke-miterlimit="10" d="M27.762,22.516
				h7.827c4.108,0,5.981,2.516,5.981,6.457c0,1.62-0.363,3.103-1.846,4.416c1.594,1.509,1.846,2.991,1.846,5.06
				c0,3.66-2.432,5.814-5.981,5.814h-7.827V22.516z M30.557,31.991h5.032c2.013,0,3.187-0.894,3.187-3.019
				c0-2.348-0.643-3.661-3.187-3.661h-5.032V31.991z M30.557,41.467h5.032c2.013,0,3.187-0.894,3.187-3.019
				c0-2.349-0.643-3.662-3.187-3.662h-5.032V41.467z"/>
		</g>
	</g>
</g>
<path fill="#FFFFFF" d="M37.709,58.604c0,0,0.989-0.81,1.135-0.9c1.001-0.625-0.052,1.441-0.052,1.441L37.709,58.604z"/>
</svg>
