<?xml version="1.0" encoding="utf-8"?>
<!-- Generator: Adobe Illustrator 16.0.0, SVG Export Plug-In . SVG Version: 6.00 Build 0)  -->
<!DOCTYPE svg PUBLIC "-//W3C//DTD SVG 1.1//EN" "http://www.w3.org/Graphics/SVG/1.1/DTD/svg11.dtd">
<svg version="1.1" id="Layer_1" xmlns="http://www.w3.org/2000/svg" xmlns:xlink="http://www.w3.org/1999/xlink" x="0px" y="0px"
	 width="286px" height="342px" viewBox="0 0 286 342" enable-background="new 0 0 286 342" xml:space="preserve">
<g>
	<defs>
		
			<rect id="SVGID_1_" x="-64.501" y="-47.465" transform="matrix(-1 -0.0043 0.0043 -1 275.3252 310.668)" width="405.001" height="405"/>
	</defs>
	<clipPath id="SVGID_2_">
		<use xlink:href="#SVGID_1_"  overflow="visible"/>
	</clipPath>
	<path clip-path="url(#SVGID_2_)" fill="#F7C500" d="M125.131,269.088L44,187.251c-11.751-11.854-11.668-30.992,0.186-42.744
		l81.838-81.132c11.858-11.754,30.996-11.671,42.744,0.186l81.132,81.839c11.753,11.855,11.67,30.992-0.186,42.744l-81.839,81.13
		C156.025,281.022,136.887,280.939,125.131,269.088"/>
	<path clip-path="url(#SVGID_2_)" fill="none" stroke="#F7C500" stroke-width="2.25" stroke-miterlimit="10" d="M125.131,269.088
		L44,187.251c-11.751-11.854-11.668-30.992,0.186-42.744l81.838-81.132c11.858-11.754,30.996-11.671,42.744,0.186l81.132,81.839
		c11.753,11.855,11.67,30.992-0.186,42.744l-81.839,81.13C156.025,281.022,136.887,280.939,125.131,269.088z"/>
	<path clip-path="url(#SVGID_2_)" fill="#F09C00" d="M167.875,269.273l81.839-81.13c11.855-11.752,11.938-30.889,0.186-42.744
		L168.768,63.56c-11.748-11.856-30.885-11.939-42.744-0.186c0,0,48.386,20.077,51.318,99.708
		C178.359,190.856,186.69,225.011,167.875,269.273"/>
	<path clip-path="url(#SVGID_2_)" fill="none" stroke="#F09C00" stroke-width="2.25" stroke-miterlimit="10" d="M167.875,269.273
		l81.839-81.13c11.855-11.752,11.938-30.889,0.186-42.744L168.768,63.56c-11.748-11.856-30.885-11.939-42.744-0.186
		c0,0,48.386,20.077,51.318,99.708C178.359,190.856,186.69,225.011,167.875,269.273z"/>
</g>
<g display="none">
	<path display="inline" d="M98.322,253.096v43.803h8.201V309.7h-8.201V323h-13v-13.301H47.919l-1.2-13.4l31.502-43.201h20.101
		V253.096z M85.321,296.898v-32.402L61.62,296.898H85.321z"/>
	<path display="inline" d="M114.517,282.896c0-41.803,61.405-41.701,61.405,0v10.102c0,41.703-61.405,41.804-61.405,0V282.896z
		 M127.618,292.998c0,25.4,35.202,25.4,35.202,0v-10.102c0-25-35.202-25.302-35.202,0V292.998z"/>
	<path display="inline" d="M235.82,253.096v43.803h8.201V309.7h-8.201V323h-13v-13.301h-37.402l-1.201-13.4l31.502-43.201h20.102
		V253.096z M222.82,296.898v-32.402l-23.701,32.402H222.82z"/>
</g>
<g>
	<path fill="#FFFFFF" d="M123.095,127.964c15.34,0.067,15.238,23.487-0.101,23.421C107.489,151.318,107.59,127.897,123.095,127.964z
		 M170.926,128.172c15.337,0.067,15.235,23.487-0.102,23.421C155.319,151.525,155.421,128.105,170.926,128.172z"/>
</g>
<g>
	<path fill="#FFFFFF" d="M99.02,174.632c12.256,15.529,30.297,23.409,49.742,23.494c20.812,0.09,37.277-7.641,49.531-23.063
		l12.148,9.091c-14.198,21.299-38.614,31.327-61.755,31.227c-22.868-0.1-46.646-11.021-60.931-32.444L99.02,174.632z"/>
</g>
</svg>
