<?xml version="1.0" encoding="utf-8"?>
<!-- Generator: Adobe Illustrator 16.0.0, SVG Export Plug-In . SVG Version: 6.00 Build 0)  -->
<!DOCTYPE svg PUBLIC "-//W3C//DTD SVG 1.1//EN" "http://www.w3.org/Graphics/SVG/1.1/DTD/svg11.dtd">
<svg version="1.1" id="Layer_1" xmlns="http://www.w3.org/2000/svg" xmlns:xlink="http://www.w3.org/1999/xlink" x="0px" y="0px"
	 width="286px" height="342px" viewBox="0 0 286 342" enable-background="new 0 0 286 342" xml:space="preserve">
<polygon fill="#F5CF32" stroke="#FFFFFF" stroke-width="1.9174" stroke-miterlimit="10" points="137.294,162.8 147.46,6.688 
	158.123,162.005 249.071,73.262 170.168,168.802 279.186,172.801 166.299,186.187 221.094,243.053 158.539,196.466 157.935,338.18 
	138.678,199.032 51.487,291.272 136.339,185.516 15.555,181.962 132.131,170.255 84.727,116.732 "/>
<g>
	<path d="M98.322,253.096v43.803h8.201v12.801h-8.201V323h-13v-13.301H47.919l-1.2-13.4l31.502-43.203H98.322z M85.321,296.898
		v-32.402L61.62,296.898H85.321z"/>
	<path d="M114.517,282.897c0-41.803,61.405-41.702,61.405,0v10.101c0,41.703-61.405,41.803-61.405,0V282.897z M127.618,292.998
		c0,25.401,35.202,25.401,35.202,0v-10.101c0-25.001-35.202-25.302-35.202,0V292.998z"/>
	<path d="M235.82,253.096v43.803h8.201v12.801h-8.201V323h-13v-13.301h-37.402l-1.201-13.4l31.502-43.203H235.82z M222.82,296.898
		v-32.402l-23.701,32.402H222.82z"/>
</g>
</svg>
